<svg width="33" height="29" viewBox="0 0 33 29" fill="none" xmlns="http://www.w3.org/2000/svg"><path fill-rule="evenodd" clip-rule="evenodd" d="M0 10V18H1.5V19.5H2.5V21H4V22H5.5V23.5H6.5V29H9.5V27.5H8V26H9.5V25H11V23.5H12V25H13.5V29H16V27.5H15V22H16V20.5H17.5V19H19V14H20.5V15.5H22V12.5H19V10H24V8.5H20V7H27V1H25.5V0H14.5V1.5H13.5V10H12V11.5H10V13H8V14H6.5V15.5H4V14H2.5V12.5H1V10H0ZM19 2.5H17V4.5H19V2.5Z" fill="#057003"></path><path fill-rule="evenodd" clip-rule="evenodd" d="M28.5 16.5L32 8.5L33 9L29.5 17.5H29H28.5H20V16.5H28.5Z" fill="#057003"></path></svg>