<svg xmlns="http://www.w3.org/2000/svg" width="35" height="41" viewBox="0 0 35 41" fill="none"><path d="M0 10.25L17.5 0L35 10.25V30.75L17.5 41L0 30.75V10.25ZM32.0833 29.2857V11.7143L17.5 2.92858L2.91668 11.7143V29.2857L17.5 38.0714L32.0833 29.2857ZM19.1406 22.1136V32.0312C19.1406 32.3711 19.0062 32.6969 18.7669 32.9372C18.5276 33.1775 18.203 33.3125 17.8646 33.3125C17.6961 33.3159 17.5286 33.2851 17.3723 33.2219C17.216 33.1587 17.0739 33.0644 16.9548 32.9448C16.8356 32.8251 16.7417 32.6825 16.6788 32.5255C16.6159 32.3686 16.5852 32.2004 16.5886 32.0312V22.1136L7.65625 16.9403C7.43913 16.8129 7.26436 16.6238 7.1539 16.397C7.04344 16.1701 7.00222 15.9155 7.0354 15.6652C7.06859 15.4148 7.17471 15.1799 7.34043 14.99C7.50616 14.8 7.72409 14.6635 7.96686 14.5975C8.12886 14.5546 8.29779 14.5448 8.46364 14.5687C8.62948 14.5926 8.78885 14.6497 8.93231 14.7366L17.8646 19.8616L26.721 14.7365C26.8644 14.6499 27.0237 14.593 27.1893 14.5692C27.355 14.5454 27.5237 14.5553 27.6855 14.5982C27.8473 14.641 27.9989 14.7161 28.1314 14.8188C28.2638 14.9215 28.3743 15.0499 28.4565 15.1963C28.6238 15.4891 28.6692 15.8364 28.5829 16.1627C28.4966 16.489 28.2856 16.7679 27.9956 16.9388L19.1406 22.0638V22.1151V22.1136Z" fill="#057003"></path></svg>